<svg xmlns="http://www.w3.org/2000/svg" viewBox="0 0 169.221 110.15">
  <defs>
    <style>
      .cls-1 {
        fill: none;
        stroke: #fff;
        stroke-width: 4px;
      }

      .cls-2 {
        fill: #fff;
      }
    </style>
  </defs>
  <g id="Groupe_313" data-name="Groupe 313" transform="translate(-1486 -2568.815)">
    <g id="Groupe_294" data-name="Groupe 294" transform="translate(611 -7074)">
      <g id="Apple_Pay_Mark_RGB_052318" transform="translate(877 9645)">
        <path id="XMLID_96_" class="cls-1" d="M150.425,0H14.8c-.565,0-1.131,0-1.695,0-.477,0-.952.009-1.428.022A20.674,20.674,0,0,0,8.567.3a10.466,10.466,0,0,0-2.953.977A9.944,9.944,0,0,0,1.271,5.634,10.507,10.507,0,0,0,.3,8.6a20.752,20.752,0,0,0-.275,3.117c-.013.477-.018.954-.021,1.432,0,.567,0,1.134,0,1.7V91.3c0,.568,0,1.134,0,1.7,0,.477.009.954.021,1.432A20.743,20.743,0,0,0,.3,97.551a10.5,10.5,0,0,0,.973,2.965,9.943,9.943,0,0,0,4.342,4.358,10.424,10.424,0,0,0,2.953.978,20.833,20.833,0,0,0,3.107.274q.713.016,1.428.019c.564,0,1.13,0,1.695,0H150.425c.564,0,1.13,0,1.694,0q.713,0,1.429-.019a20.889,20.889,0,0,0,3.107-.274,10.433,10.433,0,0,0,2.952-.978,9.866,9.866,0,0,0,2.516-1.833,9.971,9.971,0,0,0,1.827-2.524,10.442,10.442,0,0,0,.973-2.965,20.743,20.743,0,0,0,.273-3.116c.013-.477.019-.954.022-1.432,0-.568,0-1.134,0-1.7V14.85c0-.568,0-1.135,0-1.7q0-.716-.022-1.432a20.752,20.752,0,0,0-.273-3.117,10.444,10.444,0,0,0-.973-2.965,9.944,9.944,0,0,0-4.342-4.358A10.475,10.475,0,0,0,156.654.3a20.73,20.73,0,0,0-3.107-.274c-.478-.013-.953-.018-1.429-.022-.564,0-1.13,0-1.693,0Z" transform="translate(0 -0.185)"/>
        <g id="XMLID_44_">
          <path id="XMLID_46_" class="cls-2" d="M43.508,35.77a9.146,9.146,0,0,0,2.1-6.52A9.069,9.069,0,0,0,39.6,32.362a8.563,8.563,0,0,0-2.156,6.266,7.567,7.567,0,0,0,6.063-2.858"/>
          <path id="XMLID_45_" class="cls-2" d="M45.586,39.079c-3.349-.2-6.2,1.9-7.795,1.9s-4.049-1.8-6.7-1.751a9.875,9.875,0,0,0-8.4,5.1c-3.6,6.2-.949,15.4,2.549,20.451,1.7,2.5,3.747,5.25,6.445,5.151,2.549-.1,3.549-1.651,6.648-1.651s4,1.651,6.7,1.6c2.8-.05,4.548-2.5,6.247-5a22.2,22.2,0,0,0,2.8-5.75,9.081,9.081,0,0,1-5.446-8.251,9.256,9.256,0,0,1,4.4-7.751,9.573,9.573,0,0,0-7.446-4.048"/>
        </g>
        <g id="XMLID_35_">
          <path id="XMLID_41_" class="cls-2" d="M78.973,32.11c7.278,0,12.346,5.017,12.346,12.321,0,7.33-5.172,12.373-12.528,12.373H70.733V69.619H64.91V32.11Zm-8.24,19.807h6.68c5.069,0,7.954-2.729,7.954-7.46s-2.885-7.434-7.928-7.434H70.733Z"/>
          <path id="XMLID_38_" class="cls-2" d="M92.764,61.847c0-4.809,3.665-7.564,10.423-7.98l7.252-.442V51.346c0-3.041-2-4.7-5.562-4.7-2.938,0-5.069,1.508-5.511,3.821H94.115c.156-4.861,4.731-8.4,10.917-8.4,6.654,0,11,3.483,11,8.889V69.619h-5.381v-4.5h-.13a9.59,9.59,0,0,1-8.578,4.782C96.533,69.9,92.764,66.682,92.764,61.847Zm17.675-2.418V57.324l-6.472.416c-3.639.234-5.536,1.585-5.536,3.951,0,2.287,1.975,3.769,5.068,3.769C107.45,65.46,110.439,62.938,110.439,59.43Z"/>
          <path id="XMLID_36_" class="cls-2" d="M120.975,79.652v-4.5a17.141,17.141,0,0,0,1.715.1c2.574,0,4.029-1.091,4.913-3.9l.52-1.664L118.271,42.4h6.082l6.862,22.146h.13L138.208,42.4h5.927L133.919,71.075c-2.339,6.576-5.017,8.734-10.683,8.734A15.926,15.926,0,0,1,120.975,79.652Z"/>
        </g>
      </g>
    </g>
  </g>
</svg>
