<svg xmlns="http://www.w3.org/2000/svg" viewBox="0 0 185.551 152.194"><defs><style>.a{fill:none;}.b{fill:#e0e0e0;}.c{fill:#e2e2e2;}.d{fill:#b5b5b5;}.e{fill:#fff;}.f{fill:#f79e1b;}</style></defs><rect class="a" width="185.551" height="152.194"/><path class="b" d="M40.352,108.8v-7.584a4.5,4.5,0,0,0-4.753-4.8,4.677,4.677,0,0,0-4.247,2.149,4.437,4.437,0,0,0-3.994-2.149,3.994,3.994,0,0,0-3.539,1.795V96.714H21.19V108.8h2.654v-6.648a2.831,2.831,0,0,1,2.958-3.21c1.744,0,2.629,1.138,2.629,3.185v6.724h2.654v-6.7a2.844,2.844,0,0,1,2.958-3.21c1.795,0,2.654,1.138,2.654,3.185v6.724ZM79.623,96.714H75.3V93.048H72.646v3.666h-2.4v2.4H72.7v5.561c0,2.806,1.087,4.474,4.2,4.474a6.168,6.168,0,0,0,3.286-.935l-.758-2.25a4.854,4.854,0,0,1-2.326.683c-1.264,0-1.744-.809-1.744-2.022V99.115h4.3Zm22.423-.3a3.564,3.564,0,0,0-3.185,1.77V96.714h-2.6V108.8h2.629v-6.775c0-2,.86-3.109,2.528-3.109a4.285,4.285,0,0,1,1.643.3l.809-2.528A5.625,5.625,0,0,0,102,96.36Zm-33.9,1.264a9.037,9.037,0,0,0-4.929-1.264c-3.059,0-5.056,1.466-5.056,3.868,0,1.972,1.466,3.185,4.171,3.564l1.264.177c1.441.2,2.123.581,2.123,1.264,0,.935-.961,1.466-2.755,1.466a6.434,6.434,0,0,1-4.019-1.264l-1.264,2.048a8.721,8.721,0,0,0,5.233,1.567c3.489,0,5.511-1.643,5.511-3.944s-1.593-3.236-4.222-3.615l-1.264-.177c-1.138-.152-2.048-.379-2.048-1.188s.859-1.416,2.3-1.416A7.786,7.786,0,0,1,66.984,99.8Zm70.416-1.264a3.564,3.564,0,0,0-3.185,1.77V96.714h-2.6V108.8H135.4v-6.775c0-2,.859-3.109,2.528-3.109a4.285,4.285,0,0,1,1.643.3l.809-2.528a5.625,5.625,0,0,0-1.871-.329Zm-33.874,6.32a6.1,6.1,0,0,0,6.446,6.32,6.32,6.32,0,0,0,4.348-1.441l-1.264-2.123a5.309,5.309,0,0,1-3.16,1.087,3.88,3.88,0,0,1,0-7.735,5.309,5.309,0,0,1,3.16,1.087l1.264-2.123a6.32,6.32,0,0,0-4.348-1.441,6.1,6.1,0,0,0-6.446,6.32Zm24.622,0V96.714h-2.629V98.18a4.588,4.588,0,0,0-3.792-1.77,6.32,6.32,0,0,0,0,12.64,4.588,4.588,0,0,0,3.792-1.77v1.466h2.629Zm-9.783,0a3.628,3.628,0,1,1,.987,2.736,3.653,3.653,0,0,1-.987-2.736ZM87.8,96.41a6.32,6.32,0,1,0,.177,12.64A7.344,7.344,0,0,0,93,107.407l-1.264-1.947a5.751,5.751,0,0,1-3.514,1.264,3.35,3.35,0,0,1-3.615-2.958h8.974v-1.011c0-3.792-2.351-6.32-5.738-6.32Zm0,2.351a3,3,0,0,1,3.059,2.932H84.54a3.109,3.109,0,0,1,3.21-2.932Zm65.865,3.994V91.86h-2.528v6.32a4.588,4.588,0,0,0-3.792-1.77,6.32,6.32,0,1,0,0,12.64,4.588,4.588,0,0,0,3.792-1.77v1.466h2.528Zm4.386,4.285a1.215,1.215,0,0,1,1.138.72,1.175,1.175,0,0,1,0,.935,1.208,1.208,0,0,1-.657.632,1.188,1.188,0,0,1-.48.1,1.264,1.264,0,0,1-1.138-.733,1.188,1.188,0,0,1,0-.935,1.227,1.227,0,0,1,1.175-.72Zm0,2.136a.9.9,0,0,0,.367-.076.948.948,0,0,0,.291-.2.91.91,0,0,0-.291-1.466.91.91,0,0,0-.367-.076.948.948,0,0,0-.367.076.923.923,0,0,0-.3.2.917.917,0,0,0,.708,1.542Zm.076-1.5a.506.506,0,0,1,.329.1.316.316,0,0,1,.114.265.3.3,0,0,1-.088.228.442.442,0,0,1-.265.114l.367.417h-.291l-.341-.417h-.114v.417h-.24v-1.112Zm-.278.215v.3h.278a.265.265,0,0,0,.152,0,848.095,848.095,0,0,1,0-.228.265.265,0,0,0-.152,0Zm-13.9-5.132a3.628,3.628,0,1,1,.987,2.736A3.653,3.653,0,0,1,143.947,102.755Zm-88.769,0V96.714H52.549V98.18a4.588,4.588,0,0,0-3.792-1.77,6.32,6.32,0,0,0,0,12.64,4.588,4.588,0,0,0,3.792-1.77v1.466h2.629Zm-9.783,0a1.548,1.548,0,1,1-.025,0Z" transform="translate(5.593 24.248)"/><g transform="translate(19.156 19.15)"><rect class="c" width="39.815" height="71.553" transform="translate(53.712 9.732)"/><path class="d" d="M71.4,60.664a45.427,45.427,0,0,1,17.38-35.783,45.5,45.5,0,1,0,0,71.553A45.427,45.427,0,0,1,71.4,60.664Z" transform="translate(-15.155 -15.15)"/><path class="e" d="M147.026,60.665A45.5,45.5,0,0,1,73.4,96.436a45.5,45.5,0,0,0,0-71.553,45.5,45.5,0,0,1,73.626,35.77Z" transform="translate(0.219 -15.151)"/><path class="f" d="M128.4,73.83V72.363h.594v-.3h-1.5v.3h.645V73.83Zm2.92,0V72.06h-.455l-.531,1.264L129.8,72.06h-.4v1.77h.329V72.5l.493,1.15h.341l.493-1.15v1.34Z" transform="translate(14.498 -0.128)"/></g></svg>