<svg xmlns="http://www.w3.org/2000/svg" viewBox="0 0 369.055 89.541">
  <defs>
    <style>
      .cls-1, .cls-3 {
        fill: #fff;
      }

      .cls-2 {
        fill: #919191;
      }

      .cls-3 {
        opacity: 0.68;
      }

      .cls-4 {
        fill: #151515;
        opacity: 0.7;
      }

      .cls-5 {
        fill: #7b7b7b;
      }
    </style>
  </defs>
  <g id="Groupe_310" data-name="Groupe 310" transform="translate(-266 -2585.507)">
    <path id="Tracé_1661" data-name="Tracé 1661" class="cls-1" d="M308.608,21.955H288.315a2.819,2.819,0,0,0-2.784,2.38l-8.206,52.034a1.692,1.692,0,0,0,1.671,1.955h10.413a1.972,1.972,0,0,0,1.949-1.666l2.327-14.751a2.819,2.819,0,0,1,2.785-2.38h6.422c13.366,0,21.08-6.469,23.1-19.289.907-5.607.036-10.013-2.589-13.1C320.512,23.748,315.4,21.955,308.608,21.955Zm2.342,19c-1.109,7.284-6.672,7.284-12.053,7.284h-3.061l2.147-13.6a1.693,1.693,0,0,1,1.671-1.428h1.4c3.663,0,7.123,0,8.906,2.087C311.032,36.551,311.353,38.4,310.95,40.959Z" transform="translate(241.604 2583.575)"/>
    <path id="Tracé_1662" data-name="Tracé 1662" class="cls-2" d="M149.912,21.955H129.62a2.821,2.821,0,0,0-2.785,2.38l-8.206,52.034a1.692,1.692,0,0,0,1.672,1.955h9.689a2.82,2.82,0,0,0,2.785-2.379l2.214-14.038a2.819,2.819,0,0,1,2.784-2.38h6.422c13.367,0,21.081-6.469,23.1-19.289.907-5.607.036-10.013-2.588-13.1C161.816,23.748,156.7,21.955,149.912,21.955Zm2.342,19c-1.109,7.284-6.672,7.284-12.052,7.284H137.14l2.147-13.6a1.692,1.692,0,0,1,1.671-1.428h1.4c3.663,0,7.123,0,8.906,2.087C152.335,36.551,152.657,38.4,152.254,40.959Z" transform="translate(255.564 2583.575)"/>
    <path id="Tracé_1663" data-name="Tracé 1663" class="cls-2" d="M215,42.449h-9.716a1.693,1.693,0,0,0-1.672,1.428l-.427,2.717-.679-.984c-2.1-3.054-6.795-4.075-11.478-4.075-10.735,0-19.906,8.135-21.691,19.545-.929,5.692.389,11.132,3.617,14.929,2.965,3.489,7.2,4.94,12.238,4.94a18.606,18.606,0,0,0,13.452-5.56l-.434,2.7a1.691,1.691,0,0,0,1.671,1.956h8.751a2.819,2.819,0,0,0,2.784-2.379L216.673,44.4A1.691,1.691,0,0,0,215,42.449ZM201.461,61.362a10.834,10.834,0,0,1-10.968,9.279,7.527,7.527,0,0,1-8.047-9.448,10.875,10.875,0,0,1,10.89-9.35,8.186,8.186,0,0,1,6.478,2.648A8.369,8.369,0,0,1,201.461,61.362Z" transform="translate(251.127 2581.854)"/>
    <path id="Tracé_1664" data-name="Tracé 1664" class="cls-1" d="M373.7,42.449h-9.716a1.691,1.691,0,0,0-1.671,1.428l-.428,2.717-.679-.984c-2.1-3.054-6.795-4.075-11.478-4.075-10.735,0-19.906,8.135-21.69,19.545-.929,5.692.389,11.132,3.617,14.929,2.965,3.489,7.2,4.94,12.238,4.94a18.606,18.606,0,0,0,13.452-5.56l-.434,2.7a1.691,1.691,0,0,0,1.671,1.956h8.751a2.819,2.819,0,0,0,2.784-2.379L375.37,44.4A1.691,1.691,0,0,0,373.7,42.449ZM360.158,61.362a10.833,10.833,0,0,1-10.967,9.279,7.527,7.527,0,0,1-8.048-9.448,10.874,10.874,0,0,1,10.889-9.35,8.189,8.189,0,0,1,6.479,2.648A8.375,8.375,0,0,1,360.158,61.362Z" transform="translate(237.166 2581.854)"/>
    <path id="Tracé_1665" data-name="Tracé 1665" class="cls-2" d="M271.814,42.537h-9.767a2.823,2.823,0,0,0-2.333,1.237L246.241,63.616l-5.71-19.068a2.821,2.821,0,0,0-2.7-2.012h-9.6a1.693,1.693,0,0,0-1.6,2.238l10.755,31.567L227.268,90.613a1.692,1.692,0,0,0,1.381,2.67h9.757a2.819,2.819,0,0,0,2.317-1.214L273.2,45.192A1.692,1.692,0,0,0,271.814,42.537Z" transform="translate(246.069 2581.765)"/>
    <path id="Tracé_1666" data-name="Tracé 1666" class="cls-1" d="M389.885,23.384l-8.33,52.986a1.692,1.692,0,0,0,1.671,1.954H391.6a2.82,2.82,0,0,0,2.785-2.379L402.6,23.911a1.691,1.691,0,0,0-1.671-1.955h-9.373A1.69,1.69,0,0,0,389.885,23.384Z" transform="translate(232.434 2583.575)"/>
    <path id="Tracé_1667" data-name="Tracé 1667" class="cls-3" d="M68.385,22.75c1.093-6.966-.007-11.7-3.775-16C60.462,2.025,52.969,0,43.381,0H15.552a3.981,3.981,0,0,0-3.933,3.362L.03,76.846A2.389,2.389,0,0,0,2.39,79.606H19.57l-1.186,7.52a2.089,2.089,0,0,0,2.064,2.415H34.931a3.483,3.483,0,0,0,3.44-2.94l.142-.737,2.728-17.3.176-.956a3.484,3.484,0,0,1,3.44-2.941h2.166c14.03,0,25.015-5.7,28.224-22.183,1.342-6.888.648-12.637-2.9-16.679a13.8,13.8,0,0,0-3.964-3.055h0" transform="translate(265.999 2585.507)"/>
    <path id="Tracé_1668" data-name="Tracé 1668" class="cls-4" d="M68.385,22.75c1.093-6.966-.007-11.7-3.775-16C60.462,2.025,52.969,0,43.381,0H15.552a3.981,3.981,0,0,0-3.933,3.362L.03,76.846A2.389,2.389,0,0,0,2.39,79.606H19.57l4.316-27.367-.134.858a3.968,3.968,0,0,1,3.919-3.362h8.166c16.037,0,28.595-6.516,32.263-25.358.109-.556.2-1.1.285-1.628" transform="translate(265.999 2585.507)"/>
    <path id="Tracé_1669" data-name="Tracé 1669" class="cls-5" d="M28.523,22.842a3.483,3.483,0,0,1,3.441-2.94H53.779a45.491,45.491,0,0,1,7.2.524q.944.152,1.838.35t1.732.443c.28.081.555.168.825.257a19.642,19.642,0,0,1,3.016,1.274c1.093-6.966-.007-11.7-3.775-16C60.462,2.025,52.969,0,43.381,0H15.552a3.981,3.981,0,0,0-3.933,3.362L.03,76.846A2.389,2.389,0,0,0,2.39,79.606H19.57l4.316-27.367Z" transform="translate(265.999 2585.507)"/>
  </g>
</svg>
