<svg xmlns="http://www.w3.org/2000/svg" xmlns:xlink="http://www.w3.org/1999/xlink" viewBox="0 0 207.131 66.888">
  <defs>
    <style>
      .cls-1 {
        fill: url(#linear-gradient);
      }

      .cls-2 {
        clip-path: url(#clip-path);
      }
    </style>
    <linearGradient id="linear-gradient" y1="0.627" x2="0.008" y2="0.627" gradientUnits="objectBoundingBox">
      <stop offset="0" stop-color="#222357"/>
      <stop offset="1" stop-color="#fff"/>
    </linearGradient>
    <clipPath id="clip-path">
      <path id="path10273" class="cls-1" d="M1911.945-480.819c-.118,9.317,8.3,14.517,14.648,17.608,6.518,3.172,8.708,5.206,8.683,8.042-.05,4.341-5.2,6.257-10.02,6.332-8.409.131-13.3-2.27-17.185-4.086l-3.029,14.175c3.9,1.8,11.121,3.365,18.61,3.433,17.577,0,29.078-8.677,29.14-22.13.068-17.073-23.617-18.019-23.455-25.65.056-2.314,2.264-4.783,7.1-5.411a31.5,31.5,0,0,1,16.5,2.892l2.942-13.715a44.857,44.857,0,0,0-15.661-2.874c-16.545,0-28.182,8.795-28.275,21.384m72.205-20.2a7.628,7.628,0,0,0-7.122,4.746l-25.109,59.953h17.565l3.5-9.659h21.465l2.028,9.659h15.481l-13.509-64.7h-14.293m2.457,17.478,5.069,24.294h-13.883l8.814-24.294m-95.959-17.478-13.845,64.7h16.737l13.839-64.7h-16.731m-24.761,0-17.422,44.036-7.047-37.443a7.8,7.8,0,0,0-7.719-6.593h-28.48l-.4,1.878c5.847,1.269,12.489,3.315,16.514,5.5,2.463,1.337,3.166,2.507,3.974,5.685l13.348,51.63h17.689l27.118-64.7h-17.577" transform="translate(-1804.822 502.203)"/>
    </clipPath>
  </defs>
  <g id="Groupe_311" data-name="Groupe 311" transform="translate(-790 -2600)">
    <g id="Visa_2014_logo_detail" transform="translate(455.297 2062.576)">
      <g id="g10267" transform="translate(334.703 537.424)">
        <g id="g10269" class="cls-2" transform="translate(0 0)">
          <g id="g10275" transform="translate(-21.691 -67.172)">
            <path id="path10283" class="cls-1" d="M0-105.545,204.086-180.7,250.515-54.632,46.431,20.528" transform="translate(0 180.705)"/>
          </g>
        </g>
      </g>
    </g>
  </g>
</svg>
