<svg xmlns="http://www.w3.org/2000/svg" xmlns:xlink="http://www.w3.org/1999/xlink" viewBox="0 0 432.6 286.991">
  <defs>
    <style>
      .cls-1 {
        fill: #6e6e6e;
      }

      .cls-2 {
        fill: #ff716f;
      }

      .cls-3 {
        fill: #fec760;
      }

      .cls-4 {
        fill: #40eb78;
      }

      .cls-5 {
        fill: rgba(196,196,196,0.22);
      }

      .cls-6 {
        fill: url(#linear-gradient);
      }

      .cls-7 {
        fill: #fff;
      }

      .cls-8 {
        filter: url(#Tracé_559);
      }

      .cls-9 {
        filter: url(#Ellipse_471);
      }

      .cls-10 {
        filter: url(#Ellipse_469);
      }

      .cls-11 {
        filter: url(#Rectangle_2070);
      }
    </style>
    <filter id="Rectangle_2070" x="0" y="0" width="432.6" height="286.991" filterUnits="userSpaceOnUse">
      <feOffset dx="3" dy="3" input="SourceAlpha"/>
      <feGaussianBlur stdDeviation="5" result="blur"/>
      <feFlood flood-opacity="0.161"/>
      <feComposite operator="in" in2="blur"/>
      <feComposite in="SourceGraphic"/>
    </filter>
    <filter id="Ellipse_469" x="23.535" y="31.513" width="30.287" height="30.287" filterUnits="userSpaceOnUse">
      <feOffset dy="3" input="SourceAlpha"/>
      <feGaussianBlur stdDeviation="3" result="blur-2"/>
      <feFlood flood-color="#b9b9b9" flood-opacity="0.161"/>
      <feComposite operator="in" in2="blur-2"/>
      <feComposite in="SourceGraphic"/>
    </filter>
    <filter id="Ellipse_471" x="67.182" y="31.513" width="30.287" height="30.287" filterUnits="userSpaceOnUse">
      <feOffset dy="3" input="SourceAlpha"/>
      <feGaussianBlur stdDeviation="3" result="blur-3"/>
      <feFlood flood-color="#b9b9b9" flood-opacity="0.161"/>
      <feComposite operator="in" in2="blur-3"/>
      <feComposite in="SourceGraphic"/>
    </filter>
    <linearGradient id="linear-gradient" x1="-0.017" y1="0.525" x2="1.041" y2="0.536" gradientUnits="objectBoundingBox">
      <stop offset="0" stop-color="#f8b27e"/>
      <stop offset="1" stop-color="#ff367b"/>
    </linearGradient>
    <filter id="Tracé_559" x="68.448" y="83.424" width="305.037" height="178.368" filterUnits="userSpaceOnUse">
      <feOffset dx="3" dy="3" input="SourceAlpha"/>
      <feGaussianBlur stdDeviation="5" result="blur-4"/>
      <feFlood flood-opacity="0.161"/>
      <feComposite operator="in" in2="blur-4"/>
      <feComposite in="SourceGraphic"/>
    </filter>
  </defs>
  <g id="Groupe_188" data-name="Groupe 188" transform="translate(12 12)">
    <g class="cls-11" transform="matrix(1, 0, 0, 1, -12, -12)">
      <rect id="Rectangle_2070-2" data-name="Rectangle 2070" class="cls-1" width="402.599" height="256.992" rx="23" transform="translate(12 12)"/>
    </g>
    <g class="cls-10" transform="matrix(1, 0, 0, 1, -12, -12)">
      <ellipse id="Ellipse_469-2" data-name="Ellipse 469" class="cls-2" cx="6.143" cy="6.143" rx="6.143" ry="6.143" transform="translate(32.53 37.51)"/>
    </g>
    <ellipse id="Ellipse_470" data-name="Ellipse 470" class="cls-3" cx="6.143" cy="6.143" rx="6.143" ry="6.143" transform="translate(42.358 25.512)"/>
    <g class="cls-9" transform="matrix(1, 0, 0, 1, -12, -12)">
      <ellipse id="Ellipse_471-2" data-name="Ellipse 471" class="cls-4" cx="6.143" cy="6.143" rx="6.143" ry="6.143" transform="translate(76.18 37.51)"/>
    </g>
    <rect id="Rectangle_2071" data-name="Rectangle 2071" class="cls-5" width="210.322" height="19.912" rx="9.956" transform="translate(113.873 21.779)"/>
    <g class="cls-8" transform="matrix(1, 0, 0, 1, -12, -12)">
      <path id="Tracé_559-2" data-name="Tracé 559" class="cls-6" d="M137.518,0c75.949,0,137.518,60.042,137.518,134.107v14.261H0V134.107C0,60.042,61.569,0,137.518,0Z" transform="translate(80.45 95.42)"/>
    </g>
    <path id="Tracé_561" data-name="Tracé 561" class="cls-7" d="M12.2,0S.006,77.911.006,108.629c-.277,12.4,9.554,14.242,12.2,14.242s11.478.784,12.514-14.242C24.718,77.911,12.2,0,12.2,0Z" transform="translate(303.241 149.874) rotate(70)"/>
  </g>
</svg>
