<svg xmlns="http://www.w3.org/2000/svg" viewBox="0 0 58.601 57.15">
  <defs>
    <style>
      .cls-1 {
        fill: #fff;
      }
    </style>
  </defs>
  <path id="download-3" class="cls-1" d="M29.3.3a29.3,29.3,0,0,0-9.266,57.1c1.465.276,2-.63,2-1.409,0-.7-.024-2.539-.037-4.981-8.15,1.768-9.869-3.931-9.869-3.931-1.333-3.382-3.26-4.285-3.26-4.285-2.654-1.817.205-1.78.205-1.78a6.144,6.144,0,0,1,4.488,3.018c2.613,4.48,6.859,3.186,8.534,2.437a6.247,6.247,0,0,1,1.856-3.919c-6.507-.733-13.346-3.252-13.346-14.479A11.3,11.3,0,0,1,13.622,20.2a10.418,10.418,0,0,1,.256-7.755s2.454-.786,8.058,3a27.624,27.624,0,0,1,14.65,0c5.567-3.79,8.021-3,8.021-3A10.706,10.706,0,0,1,44.9,20.2a11.35,11.35,0,0,1,3,7.862c0,11.256-6.849,13.735-13.368,14.455,1.026.879,1.978,2.676,1.978,5.421,0,3.921-.037,7.071-.037,8.023,0,.769.513,1.685,2.014,1.392A29.264,29.264,0,0,0,29.3.3" transform="translate(0 -0.297)"/>
</svg>
