<svg xmlns="http://www.w3.org/2000/svg" viewBox="0 0 89.835 57.149">
  <defs>
    <style>
      .cls-1 {
        fill: #fff;
      }
    </style>
  </defs>
  <path id="download-2" class="cls-1" d="M28.579,28.854v9.8H44.805c-.648,4.211-4.9,12.334-16.211,12.334a18.055,18.055,0,0,1-.011-36.1A16.088,16.088,0,0,1,39.98,19.3l7.759-7.464A27.373,27.373,0,0,0,28.594,4.367a28.575,28.575,0,1,0-.015,57.15c16.507,0,27.444-11.6,27.444-27.927a26.055,26.055,0,0,0-.449-4.735h-27Zm61.256,0H81.663V20.683H73.492v8.171H65.325v8.164H73.5v8.175h8.194V37.018h8.141" transform="translate(0 -4.367)"/>
</svg>
