<svg xmlns="http://www.w3.org/2000/svg" viewBox="0 0 72.266 57.376">
  <defs>
    <style>
      .cls-1 {
        fill: #fff;
      }
    </style>
  </defs>
  <path id="download-4" class="cls-1" d="M8.569,14.177a2.8,2.8,0,0,0-.912-2.361L.912,3.686V2.473H21.86L38.054,37.989,52.29,2.473H72.265V3.686L66.493,9.218a1.69,1.69,0,0,0-.641,1.62V51.487a1.69,1.69,0,0,0,.641,1.617l5.631,5.531v1.213H43.79V58.636l5.832-5.667c.572-.572.572-.741.572-1.62V18.495L33.965,59.711H31.776L12.881,18.495V46.119a3.818,3.818,0,0,0,1.045,3.171L21.514,58.5v1.21H0V58.5l7.588-9.214a3.678,3.678,0,0,0,.982-3.168Z" transform="translate(0 -2.473)"/>
</svg>
