<svg xmlns="http://www.w3.org/2000/svg" viewBox="0 0 56.994 57.149">
  <defs>
    <style>
      .cls-1 {
        fill: #fff;
      }
    </style>
  </defs>
  <path id="download-5" class="cls-1" d="M28.695,44.943c-9.58,0-13.859-4.712-13.859-8.249a3.01,3.01,0,0,1,3.174-3.086c4.1,0,3.031,5.9,10.685,5.9,3.908,0,6.072-2.131,6.072-4.312,0-1.312-.641-2.762-3.224-3.4l-8.515-2.131c-6.858-1.724-8.1-5.444-8.1-8.932,0-7.256,6.813-9.98,13.213-9.98,5.884,0,12.842,3.269,12.842,7.618,0,1.867-1.638,2.953-3.46,2.953-3.5,0-2.853-4.851-9.915-4.851-3.5,0-5.458,1.581-5.458,3.85s2.746,3,5.136,3.541l6.279,1.4c6.884,1.545,8.63,5.586,8.63,9.392,0,5.9-4.529,10.3-13.625,10.3M54.96,33.321l-.069.321-.1-.571c.036.107.1.176.14.286a27.944,27.944,0,0,0,.431-4.886A26.964,26.964,0,0,0,47.44,9.382a27.34,27.34,0,0,0-8.56-5.777A23.83,23.83,0,0,0,28.573,1.391a27.228,27.228,0,0,0-5.1.486l.283.143-.569-.079.283-.06A15.968,15.968,0,0,0,2.042,23.75l.048-.3.1.569-.143-.274a26.746,26.746,0,0,0-.41,4.655,27.173,27.173,0,0,0,2.1,10.516,26.025,26.025,0,0,0,5.779,8.594,26.969,26.969,0,0,0,8.56,5.815,26.608,26.608,0,0,0,15.195,1.712l-.283-.148.571.11-.321.071A15.94,15.94,0,0,0,57.027,41.167,16.125,16.125,0,0,0,55,33.39" transform="translate(-0.032)"/>
</svg>
