<svg xmlns="http://www.w3.org/2000/svg" viewBox="0 0 535.042 548.33"><defs><style>.a{fill:#b576ff;}.b{fill:#be8ffd;}.c{fill:#8633e8;}.d{fill:#e34f88;}.e{fill:#fd8fd3;}.f{fill:#d8417b;}.g{fill:#ff5252;}.h{fill:#afffd4;}.i{fill:#d5ffe5;}.j{fill:#e6ffed;}.k{fill:#52dafa;}.l{fill:#52fae7;}.m{fill:#b2fcff;}.n{fill:#ff7676;}.o{fill:#fd8f8f;}.p{fill:#ff5d5d;}</style></defs><g transform="translate(-668.297 -262.738)"><g transform="translate(822.843 523.455)"><path class="a" d="M10434.033-2333.073v-87.1l75.757-43.934v88.8Z" transform="translate(-10358.218 2512.754)"/><path class="b" d="M10335.571-2376.086l76.365,43.22v-87.64l-76.365-43.793Z" transform="translate(-10335.571 2512.799)"/><path class="c" d="M10333.759-2349.617l76.162,43.756,76.825-43.334-77.4-49.09Z" transform="translate(-10333.614 2398.286)"/></g><g transform="translate(822.843 442.455)"><path class="a" d="M10434.033-2333.073v-87.1l75.757-43.934v88.8Z" transform="translate(-10358.218 2512.754)"/><path class="b" d="M10335.571-2376.086l76.365,43.22v-87.64l-76.365-43.793Z" transform="translate(-10335.571 2512.799)"/><path class="c" d="M10333.759-2349.617l76.162,43.756,76.825-43.334-77.4-49.09Z" transform="translate(-10333.614 2398.286)"/></g><g transform="translate(822.843 355.455)"><path class="a" d="M10434.033-2333.073v-87.1l75.757-43.934v88.8Z" transform="translate(-10358.218 2512.754)"/><path class="b" d="M10335.571-2376.086l76.365,43.22v-87.64l-76.365-43.793Z" transform="translate(-10335.571 2512.799)"/><path class="c" d="M10333.759-2349.617l76.162,43.756,76.825-43.334-77.4-49.09Z" transform="translate(-10333.614 2398.286)"/></g><g transform="translate(1041.058 355.555)"><path class="d" d="M10434.032-2326.421v-91.524l81.922-46.165v93.3Z" transform="translate(-10353.688 2515.75)"/><path class="e" d="M10335.57-2371.349l80.928,45.54v-92.346l-80.928-46.144Z" transform="translate(-10335.57 2515.403)"/><path class="f" d="M10333.759-2347l80.712,46.1,81.415-45.661-82.026-51.726Z" transform="translate(-10333.605 2398.286)"/></g><g transform="translate(668.297 613.867)"><path class="g" d="M0,3.456,87.309,0l46.448,74.577L45.963,77.76Z" transform="matrix(0.883, -0.469, 0.469, 0.883, 0, 62.795)"/><path class="h" d="M10333.588-2349.651l76.325,43.868,76.794-43.413-77.4-49.09Z" transform="translate(-10332.086 2415.555)"/><path class="i" d="M10434.033-2333.437v-86.86l77.3-43.812v88.549Z" transform="translate(-10356.729 2529.388)"/><path class="j" d="M10335.571-2376.086l76.365,43.22v-87.64l-76.365-43.793Z" transform="translate(-10334.082 2530.068)"/></g><g transform="translate(745.314 503.455)"><path class="k" d="M10333.759-2349.617l76.162,43.756,76.825-43.334-77.4-49.09Z" transform="translate(-10333.614 2398.286)"/><path class="l" d="M10434.033-2333.073v-87.1l77.3-43.934v88.8Z" transform="translate(-10358.219 2512.754)"/><path class="m" d="M10335.571-2376.086l76.365,43.22v-87.64l-76.365-43.793Z" transform="translate(-10335.571 2512.799)"/></g><g transform="translate(1045.154 262.738)"><path class="n" d="M10434.033-2333.073v-87.1l75.757-43.934v88.8Z" transform="translate(-10357.461 2512.756)"/><path class="o" d="M10335.571-2376.086l76.365,43.22v-87.64l-76.365-43.793Z" transform="translate(-10334.814 2512.799)"/><path class="p" d="M10333.588-2349.651l76.325,43.868,76.794-43.413-77.4-49.09Z" transform="translate(-10333.588 2398.286)"/></g></g></svg>