<svg xmlns="http://www.w3.org/2000/svg" xmlns:xlink="http://www.w3.org/1999/xlink" viewBox="0 0 673.871 466.775"><defs><style>.a{fill:rgba(255,255,255,0.76);}.b{fill:#2b2b2b;}.c,.f,.h{fill:#f0f0f0;letter-spacing:0.04em;}.c{font-size:17px;font-family:SFProDisplay-Semibold, SF Pro Display;font-weight:600;}.d{fill:#32d0ed;}.e{fill:rgba(195,230,117,0.76);}.f{font-size:12px;}.f,.h{font-family:SFProDisplay-Light, SF Pro Display;font-weight:300;}.g{fill:#c3e675;}.h{font-size:13px;}.i{filter:url(#g);}.j{filter:url(#e);}.k{filter:url(#c);}.l{filter:url(#a);}</style><filter id="a" x="0.471" y="12.753" width="673.4" height="453.83" filterUnits="userSpaceOnUse"><feOffset dy="3" input="SourceAlpha"/><feGaussianBlur stdDeviation="3" result="b"/><feFlood flood-opacity="0.161"/><feComposite operator="in" in2="b"/><feComposite in="SourceGraphic"/></filter><filter id="c" x="0" y="97.045" width="672.837" height="369.73" filterUnits="userSpaceOnUse"><feOffset dy="3" input="SourceAlpha"/><feGaussianBlur stdDeviation="3" result="d"/><feFlood flood-opacity="0.161"/><feComposite operator="in" in2="d"/><feComposite in="SourceGraphic"/></filter><filter id="e" x="273.515" y="35.14" width="51.358" height="51.358" filterUnits="userSpaceOnUse"><feOffset dy="3" input="SourceAlpha"/><feGaussianBlur stdDeviation="3" result="f"/><feFlood flood-opacity="0.161"/><feComposite operator="in" in2="f"/><feComposite in="SourceGraphic"/></filter><filter id="g" x="459.109" y="36.354" width="50.146" height="50.146" filterUnits="userSpaceOnUse"><feOffset dy="3" input="SourceAlpha"/><feGaussianBlur stdDeviation="3" result="h"/><feFlood flood-opacity="0.161"/><feComposite operator="in" in2="h"/><feComposite in="SourceGraphic"/></filter></defs><g transform="translate(33.125 -10429.057)"><path class="a" d="M0,22.361,125.36,0l2.191,74.54L108.426,16.934Z" transform="translate(440.502 10481.765) rotate(135)"/><g class="l" transform="matrix(1, 0, 0, 1, -33.13, 10429.06)"><path class="b" d="M0,0H655.4V435.83H0Z" transform="translate(9.47 18.75)"/></g><text class="c" transform="translate(16.354 10487.853)"><tspan x="0" y="0">Availability</tspan></text><g class="k" transform="matrix(1, 0, 0, 1, -33.13, 10429.06)"><rect class="b" width="654.837" height="351.73" transform="translate(9 103.04)"/></g><path class="d" d="M17051.006-1354.053v-300.364l87.861,30.4,60.123-30.4,106.84,171.4,153.666,48.167,112.807-68.383,134.221,8.958v139.994Z" transform="translate(-17075.131 12238.143)"/><path class="e" d="M17051.006-1277.575l100.74-21,37.627-38.162,112.172-16.963,58.131-46.025,87.027-53.252,62.223-17.758,81.172-25.962h65.41l49.238-24.285v243.41Z" transform="translate(-17073.555 12161.407)"/><g class="j" transform="matrix(1, 0, 0, 1, -33.13, 10429.06)"><ellipse class="d" cx="16.679" cy="16.679" rx="16.679" ry="16.679" transform="translate(282.51 41.14)"/></g><text class="f" transform="translate(289.228 10490.231)"><tspan x="0" y="0">Product A</tspan></text><g class="i" transform="matrix(1, 0, 0, 1, -33.13, 10429.06)"><ellipse class="g" cx="16.073" cy="16.073" rx="16.073" ry="16.073" transform="translate(468.11 42.35)"/></g><text class="h" transform="translate(479.675 10491.231)"><tspan x="0" y="0">Product B</tspan></text></g></svg>