<svg xmlns="http://www.w3.org/2000/svg" xmlns:xlink="http://www.w3.org/1999/xlink" viewBox="0 0 670.382 464.357"><defs><style>.a{fill:rgba(255,255,255,0.76);}.b{fill:#2b2b2b;}.c{fill:#fff;font-size:14px;font-family:SFProDisplay-Semibold, SF Pro Display;font-weight:600;letter-spacing:0.04em;}.d{stroke:#fff;fill:url(#e);}.e{stroke:none;}.f{fill:none;}.g{filter:url(#c);}.h{filter:url(#a);}</style><filter id="a" x="0.468" y="12.653" width="669.914" height="451.512" filterUnits="userSpaceOnUse"><feOffset dy="3" input="SourceAlpha"/><feGaussianBlur stdDeviation="3" result="b"/><feFlood flood-opacity="0.161"/><feComposite operator="in" in2="b"/><feComposite in="SourceGraphic"/></filter><filter id="c" x="0" y="96.498" width="669.354" height="367.859" filterUnits="userSpaceOnUse"><feOffset dy="3" input="SourceAlpha"/><feGaussianBlur stdDeviation="3" result="d"/><feFlood flood-opacity="0.161"/><feComposite operator="in" in2="d"/><feComposite in="SourceGraphic"/></filter><linearGradient id="e" x1="0.5" x2="0.5" y2="1" gradientUnits="objectBoundingBox"><stop offset="0" stop-color="#fe508b"/><stop offset="1" stop-color="#fe786e"/></linearGradient></defs><g transform="translate(9)"><path class="a" d="M0,22.242,124.693,0l2.179,74.143-19.023-57.3Z" transform="translate(462.155 52.427) rotate(135)"/><g class="h" transform="matrix(1, 0, 0, 1, -9, 0)"><rect class="b" width="651.914" height="433.512" transform="translate(9.47 18.65)"/></g><text class="c" transform="translate(40.263 55.569)"><tspan x="0" y="0">Benefits per month</tspan></text><g class="g" transform="matrix(1, 0, 0, 1, -9, 0)"><rect class="b" width="651.354" height="349.859" transform="translate(9 102.5)"/></g><g class="d" transform="translate(17.871 326.572)"><rect class="e" width="48.567" height="80.945"/><rect class="f" x="0.5" y="0.5" width="47.567" height="79.945"/></g><g class="d" transform="translate(78.809 259.824)"><rect class="e" width="48.567" height="147.692"/><rect class="f" x="0.5" y="0.5" width="47.567" height="146.692"/></g><g class="d" transform="translate(139.746 274.808)"><rect class="e" width="48.567" height="132.71"/><rect class="f" x="0.5" y="0.5" width="47.567" height="131.71"/></g><g class="d" transform="translate(200.684 295.784)"><rect class="e" width="48.567" height="111.733"/><rect class="f" x="0.5" y="0.5" width="47.567" height="110.733"/></g><g class="d" transform="translate(261.622 222.852)"><rect class="e" width="48.567" height="184.666"/><rect class="f" x="0.5" y="0.5" width="47.567" height="183.666"/></g><g class="d" transform="translate(322.56 259.47)"><rect class="e" width="48.567" height="148.047"/><rect class="f" x="0.5" y="0.5" width="47.567" height="147.047"/></g><g class="d" transform="translate(383.497 325.733)"><rect class="e" width="48.567" height="81.785"/><rect class="f" x="0.5" y="0.5" width="47.567" height="80.785"/></g><g class="d" transform="translate(508.831 219.008)"><rect class="e" width="48.567" height="187.753"/><rect class="f" x="0.5" y="0.5" width="47.567" height="186.753"/></g><g class="d" transform="translate(447.795 259.793)"><rect class="e" width="48.567" height="147.724"/><rect class="f" x="0.5" y="0.5" width="47.567" height="146.724"/></g><g class="d" transform="translate(569.999 142.14)"><rect class="e" width="48.567" height="265.379"/><rect class="f" x="0.5" y="0.5" width="47.567" height="264.379"/></g><text class="c" transform="translate(24.267 428.145)"><tspan x="0" y="0" xml:space="preserve">Jan.          Feb.           Mar.         Apr.           May          Jun.          Jul.           Aug.         Sep.           Oct.</tspan></text></g></svg>