<svg xmlns="http://www.w3.org/2000/svg" xmlns:xlink="http://www.w3.org/1999/xlink" viewBox="0 0 489.84 747.515"><defs><style>.a{fill:#2b2b2b;}.b{fill:#e6e6e6;}.c{fill:url(#c);}.d{fill:#ddd;}.e{fill:url(#d);}.f{fill:url(#e);}.g{fill:url(#f);}.h{fill:url(#g);}.i{fill:#d3d3d3;font-size:26px;font-family:SFProDisplay-Semibold, SF Pro Display;font-weight:600;letter-spacing:0.04em;}.j{fill:url(#h);}.k{fill:url(#i);}.l{filter:url(#a);}</style><filter id="a" x="0" y="0" width="489.84" height="747.515" filterUnits="userSpaceOnUse"><feOffset dy="-2" input="SourceAlpha"/><feGaussianBlur stdDeviation="3" result="b"/><feFlood flood-opacity="0.161"/><feComposite operator="in" in2="b"/><feComposite in="SourceGraphic"/></filter><linearGradient id="c" x1="0.026" y1="0.5" x2="1" y2="0.5" gradientUnits="objectBoundingBox"><stop offset="0" stop-color="#ff8889"/><stop offset="1" stop-color="#fc6ffc"/></linearGradient><linearGradient id="d" y1="0.5" x2="1" y2="0.5" gradientUnits="objectBoundingBox"><stop offset="0" stop-color="#d26ffc"/><stop offset="1" stop-color="#75e6d5"/></linearGradient><linearGradient id="e" y1="0.5" x2="1" y2="0.5" gradientUnits="objectBoundingBox"><stop offset="0" stop-color="#ffb264"/><stop offset="1" stop-color="#ff8b89"/></linearGradient><linearGradient id="f" y1="0.5" x2="1.777" y2="0.5" gradientUnits="objectBoundingBox"><stop offset="0" stop-color="#75e6d5"/><stop offset="1" stop-color="#c3e675"/></linearGradient><linearGradient id="g" x1="0.026" y1="0.5" x2="1" y2="0.5" gradientUnits="objectBoundingBox"><stop offset="0" stop-color="#c3e675"/><stop offset="1" stop-color="#75e6d5"/></linearGradient><linearGradient id="h" y1="0.5" x2="1" y2="0.5" gradientUnits="objectBoundingBox"><stop offset="0" stop-color="#ff9a48"/><stop offset="1" stop-color="#ff8889"/></linearGradient><linearGradient id="i" x1="0.026" y1="0.5" x2="1" y2="0.5" gradientUnits="objectBoundingBox"><stop offset="0" stop-color="#7ddcd8"/><stop offset="1" stop-color="#c283f5"/></linearGradient></defs><g transform="translate(9 11)"><g class="l" transform="matrix(1, 0, 0, 1, -9, -11)"><rect class="a" width="471.84" height="729.515" transform="translate(9 11)"/></g><g transform="translate(241.797 281.87)"><path class="b" d="M71.677,0c0,83.014,0-18.76,0,71.677h71.677A71.677,71.677,0,1,1,71.677,0Z" transform="matrix(-0.719, 0.695, -0.695, -0.719, 202.703, 103.121)"/><path class="c" d="M71.677,0V71.677h71.677A71.677,71.677,0,1,1,71.677,0Z" transform="translate(29.675 29.674)"/><ellipse class="a" cx="29.865" cy="29.866" rx="29.865" ry="29.866" transform="translate(72.029 72.029)"/></g><rect class="d" width="400.877" height="41.084" rx="17" transform="translate(38.594 168.069)"/><path class="e" d="M17,0H283.851a0,0,0,0,1,0,0V41.084a0,0,0,0,1,0,0H17a17,17,0,0,1-17-17V17A17,17,0,0,1,17,0Z" transform="translate(38.594 168.069)"/><rect class="d" width="400.877" height="41.084" rx="17" transform="translate(37.349 95.862)"/><rect class="f" width="399.632" height="41.084" rx="17" transform="translate(39.839 240.277)"/><path class="g" d="M17,0H211.643a0,0,0,0,1,0,0V41.084a0,0,0,0,1,0,0H17a17,17,0,0,1-17-17V17A17,17,0,0,1,17,0Z" transform="translate(37.349 95.862)"/><g transform="translate(25.396 485.412)"><path class="h" d="M71.989,0c38.354,0,71.99,30.989,71.99,71.99A71.989,71.989,0,1,1,71.989,0Z" transform="translate(110.294 0) rotate(50)"/><path class="b" d="M0,0H71.99A72.013,72.013,0,0,1,45.319,55.938C-52.713-64.046,56.942,70.11,0,0Z" transform="matrix(-0.017, -1, 1, -0.017, 101.421, 101.422)"/><ellipse class="a" cx="29.996" cy="29.996" rx="29.996" ry="29.996" transform="translate(105.051 59.931) rotate(50)"/></g><text class="i" transform="translate(138.975 56.499)"><tspan x="0" y="0">Yearly results</tspan></text><g transform="translate(25.106 282.124)"><path class="b" d="M71.971,0c0,83.353,0-18.837,0,71.971h71.971A71.971,71.971,0,1,1,71.971,0Z" transform="translate(111.863 202.448) rotate(-141)"/><path class="j" d="M71.971,0V71.97c-49.581,72,10.517-14.5-40.993,59.163A71.975,71.975,0,0,1,71.971,0Z" transform="translate(29.254 29.253)"/><ellipse class="a" cx="29.988" cy="29.988" rx="29.988" ry="29.988" transform="translate(71.782 71.782)"/></g><g transform="translate(241.954 485.412)"><path class="k" d="M71.989,0c38.354,0,71.99,30.989,71.99,71.99A71.989,71.989,0,1,1,71.989,0Z" transform="translate(110.294 0) rotate(50)"/><ellipse class="a" cx="29.996" cy="29.996" rx="29.996" ry="29.996" transform="translate(105.051 58.76) rotate(50)"/></g></g></svg>