<svg xmlns="http://www.w3.org/2000/svg" viewBox="0 0 132.768 261.964">
  <defs>
    <style>
      .cls-1 {
        fill: #868686;
      }

      .cls-2, .cls-7 {
        fill: none;
      }

      .cls-2 {
        stroke: #fff;
        stroke-width: 5px;
      }

      .cls-3 {
        fill: #fff;
      }

      .cls-4 {
        fill: #110071;
      }

      .cls-5 {
        fill: #2b2b2b;
      }

      .cls-6 {
        stroke: none;
      }
    </style>
  </defs>
  <g id="Groupe_453" data-name="Groupe 453" transform="translate(-935.574 -3955.366)">
    <rect id="Rectangle_2079" data-name="Rectangle 2079" class="cls-1" width="132.584" height="260.882" rx="25" transform="translate(935.574 3955.878)"/>
    <g id="Rectangle_2080" data-name="Rectangle 2080" class="cls-2" transform="translate(935.586 3955.366)">
      <rect class="cls-6" width="132.756" height="261.964" rx="16"/>
      <rect class="cls-7" x="2.5" y="2.5" width="127.756" height="256.964" rx="13.5"/>
    </g>
    <path id="Rectangle_2081" data-name="Rectangle 2081" class="cls-3" d="M0,0H69.594a0,0,0,0,1,0,0V0a14.11,14.11,0,0,1-14.11,14.11H14.11A14.11,14.11,0,0,1,0,0V0A0,0,0,0,1,0,0Z" transform="translate(967.069 3956.034)"/>
    <ellipse id="Ellipse_476" data-name="Ellipse 476" class="cls-4" cx="3.048" cy="2.812" rx="3.048" ry="2.812" transform="translate(1015.503 3960.009)"/>
    <rect id="Rectangle_2082" data-name="Rectangle 2082" class="cls-5" width="30.479" height="2.812" rx="1.406" transform="translate(980.277 3961.459)"/>
  </g>
</svg>
