<svg xmlns="http://www.w3.org/2000/svg" xmlns:xlink="http://www.w3.org/1999/xlink" viewBox="0 0 368.958 772.071">
  <defs>
    <style>
      .cls-1 {
        fill: url(#linear-gradient);
      }

      .cls-2, .cls-6 {
        fill: #fff;
      }

      .cls-3 {
        fill: #110071;
      }

      .cls-4 {
        fill: #2b2b2b;
      }

      .cls-5, .cls-6 {
        stroke: none;
      }

      .cls-7 {
        filter: url(#Tracé_2118);
      }
    </style>
    <linearGradient id="linear-gradient" x1="0.099" x2="0.944" y2="0.988" gradientUnits="objectBoundingBox">
      <stop offset="0" stop-color="#10ffda"/>
      <stop offset="0.537" stop-color="#db0dd3"/>
      <stop offset="1" stop-color="#ff7f00"/>
    </linearGradient>
    <filter id="Tracé_2118" x="0" y="0" width="368.958" height="772.071" filterUnits="userSpaceOnUse">
      <feOffset dx="3" dy="3" input="SourceAlpha"/>
      <feGaussianBlur stdDeviation="3" result="blur"/>
      <feFlood flood-opacity="0.161"/>
      <feComposite operator="in" in2="blur"/>
      <feComposite in="SourceGraphic"/>
    </filter>
  </defs>
  <g id="Groupe_452" data-name="Groupe 452" transform="translate(-1511.094 -4444.761)">
    <g id="Groupe_451" data-name="Groupe 451" transform="translate(533.204 4104.395)">
      <g class="cls-7" transform="matrix(1, 0, 0, 1, 977.89, 340.37)">
        <g id="Tracé_2118-2" data-name="Tracé 2118" class="cls-1" transform="translate(6 6)">
          <path class="cls-5" d="M 296.0928955078125 749.0713500976562 L 54.86470413208008 749.0713500976562 C 48.13080596923828 749.0713500976562 41.60100555419922 747.753662109375 35.45670700073242 745.1547241210938 C 29.51940536499023 742.6435546875 24.18620491027832 739.0474243164062 19.60500526428223 734.4663696289062 C 15.02390575408936 729.8851318359375 11.42780590057373 724.5519409179688 8.916605949401855 718.6146240234375 C 6.317705631256104 712.4703369140625 5.000005722045898 705.9405517578125 5.000005722045898 699.2066650390625 L 5.000005722045898 54.86474609375 C 5.000005722045898 48.13084411621094 6.317705631256104 41.60104370117188 8.916605949401855 35.45664596557617 C 11.42780590057373 29.51944541931152 15.02390575408936 24.18614387512207 19.60500526428223 19.60504531860352 C 24.18610572814941 15.02394485473633 29.51940536499023 11.4278450012207 35.45670700073242 8.916644096374512 C 41.60100555419922 6.317744731903076 48.13080596923828 5.000044345855713 54.86470413208008 5.000044345855713 L 296.0928955078125 5.000044345855713 C 302.8268127441406 5.000044345855713 309.3565979003906 6.317744731903076 315.5009155273438 8.916644096374512 C 321.4382019042969 11.4278450012207 326.7715148925781 15.02394485473633 331.3526000976562 19.60504531860352 C 335.9337158203125 24.18614387512207 339.5298156738281 29.51944541931152 342.041015625 35.45664596557617 C 344.639892578125 41.60104370117188 345.9576110839844 48.13084411621094 345.9576110839844 54.86474609375 L 345.9576110839844 699.2066650390625 C 345.9576110839844 705.9405517578125 344.639892578125 712.4703369140625 342.041015625 718.6146240234375 C 339.5298156738281 724.5519409179688 335.9337158203125 729.8851318359375 331.3526000976562 734.4663696289062 C 326.7713928222656 739.0474243164062 321.4382019042969 742.6435546875 315.5009155273438 745.1547241210938 C 309.3565979003906 747.753662109375 302.8268127441406 749.0713500976562 296.0928955078125 749.0713500976562 Z"/>
          <path class="cls-6" d="M 296.0929260253906 744.0712890625 C 320.8313598632812 744.0712890625 340.9575805664062 723.945068359375 340.9575805664062 699.2066650390625 L 340.9575805664062 54.86464309692383 C 340.9575805664062 30.12619972229004 320.8313598632812 9.999978065490723 296.0929260253906 9.999978065490723 L 54.86469268798828 9.999978065490723 C 30.12624931335449 9.999978065490723 10.00002765655518 30.12619972229004 10.00002765655518 54.86464309692383 L 10.00002765655518 699.2066650390625 C 10.00002765655518 723.945068359375 30.12624931335449 744.0712890625 54.86469268798828 744.0712890625 L 296.0929260253906 744.0712890625 M 296.0929260253906 754.0712890625 L 54.86469268798828 754.0712890625 C 24.56380462646484 754.0712890625 2.776421388261952e-05 729.5075073242188 2.776421388261952e-05 699.2066650390625 L 2.776421388261952e-05 54.86464309692383 C 2.776421388261952e-05 24.56375503540039 24.56380462646484 -2.213541665696539e-05 54.86469268798828 -2.213541665696539e-05 L 296.0929260253906 -2.213541665696539e-05 C 326.393798828125 -2.213541665696539e-05 350.9575805664062 24.56375503540039 350.9575805664062 54.86464309692383 L 350.9575805664062 699.2066650390625 C 350.9575805664062 729.5075073242188 326.393798828125 754.0712890625 296.0929260253906 754.0712890625 Z"/>
        </g>
      </g>
      <path id="Rectangle_2544" data-name="Rectangle 2544" class="cls-2" d="M0,0H183.98a0,0,0,0,1,0,0V11.029a20,20,0,0,1-20,20H20a20,20,0,0,1-20-20V0A0,0,0,0,1,0,0Z" transform="translate(1067.121 351.763)"/>
      <ellipse id="Ellipse_522" data-name="Ellipse 522" class="cls-3" cx="8.058" cy="8.094" rx="8.058" ry="8.094" transform="translate(1190.67 358.508)"/>
      <rect id="Rectangle_2545" data-name="Rectangle 2545" class="cls-4" width="80.575" height="8.094" rx="4.047" transform="translate(1102.037 363.905)"/>
      <rect id="Rectangle_2547" data-name="Rectangle 2547" width="133.657" height="6.218" rx="3.109" transform="translate(1092.961 1075.102)"/>
    </g>
    <path id="Tracé_2121" data-name="Tracé 2121" class="cls-2" d="M18.385,19.662h17.78l36,103.935L111.824,19.662H127.9L81.443,139.752S168.222,68.6,72.161,68.6s-9.63,71.147-9.63,71.147Z" transform="translate(1765.233 4887.752) rotate(180)"/>
  </g>
</svg>
